<svg width="24" height="24" fill="none" xmlns="http://www.w3.org/2000/svg"><path d="M31.41 9.645v15.84a.91.91 0 0 1-.915.915h-14.67a6.799 6.799 0 0 0-6.015-9.96c-1.965 0-3.75.84-4.98 2.175v-8.97a.91.91 0 0 1 .915-.915H30.51c.48 0 .9.42.9.915Z" fill="url(#paymentlink_icon_svg__a)"></path><path d="M32.28 19.53h-6.735a.8.8 0 0 1-.795-.795V16.38a.8.8 0 0 1 .795-.795h6.735a.8.8 0 0 1 .795.795v2.37a.797.797 0 0 1-.795.78Z" fill="url(#paymentlink_icon_svg__b)"></path><path d="M16.59 23.25c0 1.14-.285 2.22-.78 3.165H5.73a.91.91 0 0 1-.915-.915v-6.87a6.794 6.794 0 0 1 11.775 4.62Z" fill="url(#paymentlink_icon_svg__c)"></path><path d="M15.81 26.415a6.794 6.794 0 0 1-6.015 3.63A6.799 6.799 0 0 1 3 23.25c0-1.785.69-3.405 1.815-4.62v6.87c0 .51.405.915.915.915h10.08Z" fill="url(#paymentlink_icon_svg__d)"></path><defs><linearGradient id="paymentlink_icon_svg__a" x1="4.809" y1="17.57" x2="31.404" y2="17.57" gradientUnits="userSpaceOnUse"><stop stop-color="#E7CFFF"></stop><stop offset="1" stop-color="#870FFF"></stop></linearGradient><linearGradient id="paymentlink_icon_svg__b" x1="24.755" y1="17.57" x2="33.066" y2="17.57" gradientUnits="userSpaceOnUse"><stop stop-color="#FCFF1C"></stop><stop offset="1" stop-color="#FF9D0A"></stop></linearGradient><linearGradient id="paymentlink_icon_svg__c" x1="4.808" y1="21.428" x2="16.591" y2="21.428" gradientUnits="userSpaceOnUse"><stop stop-color="#FFDDCD"></stop><stop offset="1" stop-color="#FF5403"></stop></linearGradient><linearGradient id="paymentlink_icon_svg__d" x1="2.999" y1="24.333" x2="15.809" y2="24.333" gradientUnits="userSpaceOnUse"><stop stop-color="#FCFF1C"></stop><stop offset="1" stop-color="#FF9D0A"></stop></linearGradient></defs></svg>