<svg transform="scale(1)" version="1.1" id="braTlCwXs5" xmlns="http://www.w3.org/2000/svg" xmlns:xlink="http://www.w3.org/1999/xlink" x="0px" y="0px" width="500px" height="500px" viewBox="0 0 500 500" xml:space="preserve" class="pbimage_pbimage__wrapper__image__0LEis false"><title>Error</title><style type="text/css"> .st0{fill:#FFDC32;} .st1{fill:#FFB0CC;} .st2{fill:#005596;} .st3{fill:#000001;} .st4{fill:#FFFFFF;}
 .st4{fill:#FFFFFF;}
 .st3{fill:#000001;}
 .st2{fill:#005596;}
 .st1{fill:#FFB0CC;}
 .st0{fill:#FFDC32;}</style><g id="computer"><rect class="st0" x="94.3" y="122.86" transform="matrix(0.9667 0.2558 -0.2558 0.9667 59.3053 -47.252)" width="234" height="163" fill="#FFDC32"></rect><path class="st0" d="M207.56,287.67c-3.61,11.81-6.62,23.8-9.02,35.91c-0.54,2.73-1.05,5.59-0.27,8.26c1,3.45,4.25,6.13,7.82,6.45
		l-1.62,5.4l-55.08-14.64l1.43-5.62c0,0,1.7,0.54,1.86,0.52c2.6,0.74,5.49-0.06,7.62-1.72s3.57-4.09,4.45-6.64l9.36-36.71
		L207.56,287.67z" fill="#FFDC32"></path><path class="st1" d="M366.98,99.04c5.6,10.1,15.1,17.44,21.88,26.79c0,0-28.63,15.46-28.99,15.78c-1.48-0.7-2.96-1.4-4.45-2.1
		c-2.14,2.27-3.74,5.05-4.64,8.03c-1.1,3.63-1.17,7.5-2.18,11.16c-1.01,3.66-3.32,7.34-6.98,8.33c0.23-2.45,0.46-4.9,0.69-7.35
		c0.07-0.76,0.13-1.59-0.27-2.24c-0.64-1.04-2.13-1.19-2.92-2.12c-1.16-1.36-0.22-3.4,0.12-5.15c0.72-3.69-1.52-7.29-1.97-11.02
		c-0.69-5.85,3.79-11.84,9.6-12.82c-0.87-1.31-0.5-3.29,0.79-4.2L366.98,99.04z" fill="#FFB0CC"></path><path class="st1" d="M316.57,148.61c-0.98-3.43,0.26-7.04,1.17-10.49c0.24-0.9,0.37-2.04-0.4-2.57c-0.67-0.47-1.6-0.11-2.3,0.31
		c-3.69,2.23-6.23,6.26-6.65,10.55c-0.03,0.26-0.04,0.54,0.11,0.76c0.18,0.25,0.51,0.32,0.81,0.37
		C311.89,147.95,314.46,148.37,316.57,148.61z" fill="#FFB0CC"></path><polygon class="st2" points="171.98,288.07 205.28,296.47 207.69,287.63 173.86,279.24 	" fill="#005596"></polygon><polygon class="st2" points="89.97,358.99 293.8,358.99 332.78,394.95 332.78,404.86 50.65,404.86 50.65,393.94 	" fill="#005596"></polygon><polygon class="st3" points="85.02,224.2 119.04,95.64 345.25,155.5 311.17,284.29 	" fill="#000001"></polygon><path class="st1" d="M338.03,153.8c2.16,0.88,4.42,1.53,6.97,1.97c-0.77,3.94-1.73,7.85-2.88,11.7c-0.22,0.74-0.58,1.59-1.94,1.71
		c-4.74,3.49-11.11,4.67-16.78,3.1s-10.53-5.85-12.8-11.28c0,0,5.53-6.37,6.13-6.16c0.95,1.59,1.13,3.63,2.4,4.99
		c0.61,0.65,1.41,1.07,2.19,1.47c1.3,0.67,2.63,1.34,4.07,1.59c2.55,0.45,5.21-0.46,7.27-2.04
		C334.71,159.27,336.22,157.08,338.03,153.8z" fill="#FFB0CC"></path><path class="st2" d="M303.56,313.57c-0.04,0-0.08,0-0.13-0.02L77.22,253.7c-0.13-0.03-0.24-0.12-0.3-0.23
		c-0.07-0.11-0.08-0.25-0.05-0.38l41.7-157.58c0.07-0.27,0.34-0.42,0.61-0.36l226.21,59.86c0.13,0.03,0.24,0.12,0.3,0.23
		c0.07,0.11,0.08,0.25,0.05,0.38l-41.7,157.58C303.98,313.42,303.78,313.57,303.56,313.57z M77.95,252.86l225.25,59.6l41.44-156.61
		L119.4,96.25L77.95,252.86z" fill="#005596"></path><path class="st2" d="M310.65,284.79c-0.04,0-0.08,0-0.13-0.02L85.31,225.15c-0.27-0.07-0.43-0.34-0.36-0.61
		c0.07-0.27,0.35-0.42,0.61-0.36l225.21,59.63c0.27,0.07,0.43,0.34,0.36,0.61C311.07,284.64,310.87,284.79,310.65,284.79z" fill="#005596"></path><path class="st2" d="M204.56,344.47c-0.04,0-0.09-0.01-0.13-0.02l-54.96-14.78c-0.26-0.07-0.42-0.33-0.36-0.59l1.26-5.51
		c0.03-0.13,0.11-0.25,0.23-0.32c0.12-0.07,0.25-0.09,0.39-0.06c2.78,0.74,5.68,0.34,8.16-1.11c2.48-1.45,4.24-3.79,4.96-6.57
		l9.36-36.4c0.07-0.27,0.34-0.43,0.61-0.36c0.27,0.07,0.43,0.34,0.36,0.61l-9.36,36.39c-0.78,3.04-2.71,5.6-5.42,7.19
		c-2.56,1.5-5.53,1.97-8.42,1.33l-1.04,4.54l54.02,14.52l1.2-4.46c-5.9-1.87-9.32-8.02-7.8-14.03l9.38-37.05
		c0.07-0.27,0.34-0.43,0.61-0.36c0.27,0.07,0.43,0.34,0.36,0.61l-9.38,37.05c-1.39,5.51,1.76,11.15,7.19,12.85l0.4,0.12
		c0.26,0.08,0.4,0.35,0.33,0.61l-1.45,5.41c-0.03,0.13-0.12,0.24-0.23,0.3C204.73,344.45,204.65,344.47,204.56,344.47z" fill="#005596"></path><path class="st2" d="M200.89,338.67c-0.05,0-0.09-0.01-0.14-0.02l-44.63-12.85c-0.27-0.08-0.42-0.35-0.34-0.62s0.36-0.42,0.62-0.34
		l44.63,12.85c0.27,0.08,0.42,0.35,0.34,0.62C201.31,338.53,201.11,338.67,200.89,338.67z" fill="#005596"></path><path class="st2" d="M194.21,275.05c-3.38,0-6.12-2.75-6.12-6.12s2.75-6.12,6.12-6.12s6.12,2.75,6.12,6.12
		S197.59,275.05,194.21,275.05z M194.21,263.8c-2.83,0-5.12,2.3-5.12,5.12s2.3,5.12,5.12,5.12s5.12-2.3,5.12-5.12
		S197.04,263.8,194.21,263.8z" fill="#005596"></path><path class="st4" d="M113.15,230.87c-0.16,0-0.32-0.08-0.41-0.22c-0.16-0.23-0.1-0.54,0.13-0.7l60.42-41.55l-5.85-12.69
		c-0.09-0.2-0.04-0.44,0.12-0.58l56.41-49.87c0.21-0.18,0.52-0.16,0.71,0.04c0.18,0.21,0.16,0.52-0.04,0.71l-56.13,49.62l5.87,12.74
		c0.1,0.22,0.03,0.48-0.17,0.62l-60.77,41.79C113.35,230.84,113.25,230.87,113.15,230.87z" fill="#FFFFFF"></path><path class="st4" d="M172.64,246.76c-0.23,0-0.44-0.16-0.49-0.4l-4.91-24.27l-8.63,1.34c-0.16,0.02-0.32-0.03-0.44-0.15
		c-0.11-0.12-0.16-0.28-0.13-0.44l5-26.28c0.05-0.27,0.31-0.45,0.58-0.4c0.27,0.05,0.45,0.31,0.4,0.58l-4.87,25.59l8.4-1.3
		c0.27-0.04,0.51,0.13,0.57,0.4l5,24.74c0.05,0.27-0.12,0.53-0.39,0.59C172.7,246.76,172.67,246.76,172.64,246.76z" fill="#FFFFFF"></path><path class="st1" d="M167.51,166.37c-0.35,0-0.68-0.18-0.87-0.5l-19.23-33.33c-0.28-0.48-0.11-1.09,0.37-1.37
		c0.48-0.28,1.09-0.11,1.37,0.37l19.23,33.33c0.28,0.48,0.11,1.09-0.37,1.37C167.85,166.32,167.68,166.37,167.51,166.37z" fill="#FFB0CC"></path><path class="st1" d="M139.82,163.16c-0.31,0-0.62-0.15-0.82-0.42c-0.32-0.45-0.21-1.08,0.24-1.39l37.69-26.54
		c0.45-0.32,1.08-0.21,1.39,0.24c0.32,0.45,0.21,1.08-0.24,1.39l-37.69,26.54C140.22,163.1,140.02,163.16,139.82,163.16z" fill="#FFB0CC"></path><path class="st1" d="M289.35,205.9c-0.34,0-0.68-0.18-0.87-0.5l-23.67-40.81c-0.28-0.48-0.11-1.09,0.36-1.37
		c0.48-0.28,1.09-0.11,1.37,0.36l23.67,40.81c0.28,0.48,0.11,1.09-0.36,1.37C289.7,205.85,289.52,205.9,289.35,205.9z" fill="#FFB0CC"></path><path class="st1" d="M261.25,197.38c-0.31,0-0.62-0.15-0.82-0.42c-0.32-0.45-0.21-1.08,0.24-1.39l34.52-24.37
		c0.45-0.32,1.08-0.21,1.39,0.24c0.32,0.45,0.21,1.08-0.24,1.39l-34.52,24.37C261.65,197.32,261.45,197.38,261.25,197.38z" fill="#FFB0CC"></path><path class="st1" d="M238.95,240.74c-0.36,0-0.7-0.19-0.88-0.53c-5.28-9.88-14.39-17.6-25-21.18c-10.61-3.58-22.54-2.97-32.73,1.69
		c-0.5,0.23-1.1,0.01-1.33-0.49c-0.23-0.5-0.01-1.1,0.49-1.33c10.64-4.87,23.11-5.51,34.2-1.76c11.09,3.74,20.61,11.81,26.13,22.13
		c0.26,0.49,0.08,1.09-0.41,1.35C239.27,240.71,239.11,240.74,238.95,240.74z" fill="#FFB0CC"></path><path class="st1" d="M218.95,247.23c-2.53,0-4.88-1.02-6.27-2.76c-1.93-2.42-2.1-5.87-0.53-10.55c0.33-0.97,0.68-1.94,1.04-2.91
		c1.4-3.81,2.85-7.76,2.36-11.66c-0.07-0.55,0.32-1.05,0.87-1.12c0.54-0.07,1.05,0.32,1.12,0.87c0.55,4.38-0.99,8.56-2.47,12.6
		c-0.35,0.95-0.7,1.91-1.02,2.86c-1.34,3.98-1.28,6.81,0.19,8.66c1.14,1.43,3.21,2.19,5.41,1.97c2.37-0.22,4.58-1.45,6.03-2.35
		c4.22-2.62,6.83-5.65,7.75-9.01c0.15-0.53,0.7-0.85,1.23-0.7c0.53,0.15,0.85,0.7,0.7,1.23c-1.06,3.86-3.96,7.28-8.62,10.17
		c-1.63,1.01-4.12,2.38-6.9,2.65C219.55,247.22,219.25,247.23,218.95,247.23z" fill="#FFB0CC"></path><path class="st1" d="M221.14,239.09c-0.27,0-0.55-0.11-0.74-0.33c-0.37-0.41-0.33-1.04,0.08-1.41c2.99-2.68,4.87-6.51,5.18-10.51
		c0.04-0.55,0.5-0.97,1.07-0.92c0.55,0.04,0.96,0.52,0.92,1.07c-0.35,4.51-2.47,8.83-5.84,11.85
		C221.62,239.01,221.38,239.09,221.14,239.09z" fill="#FFB0CC"></path><path class="st4" d="M307.25,167.73c-0.09,0-0.18-0.01-0.28-0.04c-0.53-0.15-0.84-0.71-0.68-1.24c1.86-6.44,6.87-12.01,13.07-14.54
		c0.51-0.21,1.09,0.04,1.3,0.55c0.21,0.51-0.04,1.09-0.55,1.3c-5.65,2.31-10.21,7.38-11.91,13.25
		C308.08,167.44,307.68,167.73,307.25,167.73z" fill="#FFFFFF"></path><path class="st4" d="M326.36,163.72c-0.7,0-1.39-0.06-2.07-0.19c-4.36-0.82-7.97-4.3-8.78-8.47c-0.11-0.54,0.25-1.07,0.79-1.17
		c0.54-0.11,1.07,0.25,1.17,0.79c0.64,3.33,3.67,6.22,7.18,6.88c3.39,0.64,7.22-0.69,9.75-3.37c1.3-1.38,2.29-3.08,3.24-4.72
		c0.28-0.48,0.89-0.64,1.37-0.36c0.48,0.28,0.64,0.89,0.36,1.37c-1.01,1.74-2.06,3.55-3.52,5.09
		C333.38,162.2,329.82,163.72,326.36,163.72z" fill="#FFFFFF"></path><path class="st4" d="M328.87,174c-1.75,0-3.5-0.22-5.19-0.67c-5.97-1.6-11.18-6.13-13.6-11.82c-0.22-0.51,0.02-1.1,0.53-1.31
		c0.51-0.22,1.1,0.02,1.31,0.53c2.19,5.13,6.89,9.22,12.28,10.67c5.39,1.45,11.51,0.27,15.97-3.08c0.44-0.33,1.07-0.24,1.4,0.2
		c0.33,0.44,0.24,1.07-0.2,1.4C337.82,172.58,333.33,174,328.87,174z" fill="#FFFFFF"></path><path class="st3" d="M339.44,152.26c-0.11,0-0.23-0.02-0.34-0.06c-0.52-0.19-0.79-0.76-0.6-1.28c0.75-2.06,0.06-4.31-0.67-6.7
		c-0.35-1.16-0.72-2.36-0.93-3.56c-1.08-6.35,2.82-13.01,8.88-15.18c0.52-0.19,1.09,0.09,1.28,0.61c0.19,0.52-0.08,1.09-0.61,1.28
		c-5.09,1.82-8.49,7.63-7.58,12.96c0.19,1.08,0.52,2.17,0.87,3.32c0.79,2.59,1.62,5.28,0.64,7.97
		C340.23,152,339.85,152.26,339.44,152.26z" fill="#000001"></path><path class="st3" d="M344.36,167.04c-0.26,0-0.53-0.1-0.72-0.31c-0.38-0.4-0.37-1.03,0.03-1.41c4.24-4.07,5.42-10.13,5.67-14.5
		l0.04-0.8c0.06-1.28,0.12-2.6,0.46-3.91c0.8-3.03,3.03-5.46,4.82-7.42c0.37-0.41,1.01-0.43,1.41-0.06s0.43,1.01,0.06,1.41
		c-1.73,1.89-3.69,4.02-4.36,6.58c-0.29,1.1-0.34,2.26-0.4,3.49l-0.04,0.82c-0.26,4.73-1.56,11.31-6.28,15.83
		C344.86,166.95,344.61,167.04,344.36,167.04z" fill="#000001"></path><path class="st3" d="M316.39,147.32c-0.43,0-0.83-0.28-0.96-0.72c-0.55-1.9-0.04-3.85,0.6-5.68l0.14-0.4
		c0.52-1.47,1-2.85,0.88-4.22c0-0.04-0.01-0.07-0.01-0.09c-0.14,0.01-0.4,0.06-0.69,0.22c-3.01,1.59-5.3,4.38-6.29,7.64
		c-0.16,0.53-0.71,0.83-1.25,0.67c-0.53-0.16-0.83-0.72-0.67-1.25c1.14-3.77,3.79-6.98,7.27-8.82c1.38-0.73,2.71-0.56,3.32,0.42
		c0.22,0.36,0.28,0.74,0.31,1.03c0.17,1.8-0.42,3.46-0.98,5.07l-0.14,0.39c-0.49,1.41-0.98,3.04-0.57,4.47
		c0.15,0.53-0.15,1.08-0.68,1.24C316.58,147.31,316.48,147.32,316.39,147.32z" fill="#000001"></path><path class="st3" d="M360.21,142.33c-0.07,0-0.13-0.01-0.2-0.02c-3.42-0.7-6.01-3.22-8.3-5.84c-1.54-1.75-3.12-3.68-4.26-5.91
		c-1.28-2.49-1.81-5.05-1.54-7.38c0.02-0.19,0.1-0.37,0.22-0.52l19.77-23.98c0.19-0.23,0.47-0.36,0.77-0.36c0,0,0,0,0,0
		c0.3,0,0.58,0.13,0.77,0.36l22.05,26.37c0.19,0.23,0.27,0.53,0.22,0.83s-0.24,0.55-0.5,0.69c-10.98,5.99-27.54,15.04-28.42,15.58
		C360.62,142.27,360.42,142.33,360.21,142.33z M347.87,123.7c-0.19,2.34,0.62,4.52,1.36,5.95c1.04,2.04,2.53,3.85,3.98,5.51
		c1.98,2.25,4.17,4.42,6.85,5.11c1.4-0.8,6.65-3.71,27.12-14.87l-20.5-24.51L347.87,123.7z" fill="#000001"></path><path class="st4" d="M329.01,396.89H53.9c-0.55,0-1-0.45-1-1s0.45-1,1-1h275.11c0.55,0,1,0.45,1,1S329.56,396.89,329.01,396.89z" fill="#FFFFFF"></path><path class="st4" d="M218.09,392.85h-52.12c-0.33,0-0.64-0.16-0.82-0.43c-0.19-0.27-0.23-0.62-0.11-0.92l2.72-7.17
		c0.15-0.39,0.52-0.65,0.94-0.65h45.93c0.38,0,0.73,0.22,0.9,0.57l3.46,7.17c0.15,0.31,0.13,0.67-0.05,0.97
		C218.75,392.67,218.44,392.85,218.09,392.85z M167.42,390.85h49.07l-2.5-5.17h-44.61L167.42,390.85z" fill="#FFFFFF"></path><path class="st4" d="M307.32,381.52H75.97c-0.4,0-0.76-0.24-0.92-0.6c-0.16-0.37-0.08-0.79,0.19-1.08l16.66-17.62
		c0.19-0.2,0.45-0.31,0.73-0.31h197.62c0.27,0,0.53,0.11,0.72,0.3l17.07,17.62c0.28,0.29,0.36,0.72,0.2,1.09
		C308.08,381.28,307.72,381.52,307.32,381.52z M78.29,379.52h226.67l-15.13-15.62H93.06L78.29,379.52z" fill="#FFFFFF"></path></g><g id="character"><path class="st3" d="M380.21,284.32c9.82,1.92,19.97,2.16,29.87,0.7c1.38-0.2,2.77-0.44,4.16-0.39c0,0,20.06,103.84,20,103.8
		c-0.02,0.38-0.06,0.81-0.38,1.02c-0.13,0.09-0.29,0.12-0.44,0.15c-0.46,0.1-0.92,0.2-1.37,0.29c0,0,2.37,4.96,2.26,4.95
		c0.37,0.87,0.13,1.97-0.57,2.61l-3.58,5.57h-12.31c0,0-0.36-1.73-0.25-1.72c0.16-0.88,0.81-1.59,1.51-2.14
		c0.7-0.55,1.49-0.99,2.13-1.62c0.87-0.86,1.4-2.05,1.46-3.27c0.03-0.62-0.05-1.23-0.14-1.84c-0.05-0.39-0.16-0.86-0.53-1.01
		c-0.43-0.18-0.9,0.19-1.36,0.11c-0.37-0.06-0.65-0.47-0.57-0.84l-19.81-87.16c0,0-1.74,87.72-1.79,87.68
		c-0.13,0.45-0.33,0.97-0.79,1.09c-0.14,0.04-0.29,0.03-0.43,0.02c-0.67-0.04-1.35-0.07-2.02-0.11v10.16h-19.53
		c0,0,0.76-0.72,1.12-1c1.18-0.16,2.27-0.71,3.32-1.28c1.58-0.87,3.15-1.83,4.34-3.19c1.19-1.36,1.97-3.17,1.74-4.96l-2.71-0.14
		L380.21,284.32z"></path><path class="st2" d="M392.07,223.32c0.37,0.81,1.24,1.27,2.09,1.54c0.85,0.26,1.75,0.39,2.55,0.79c0,0,9.36,0.04,9.46,0.11
		c0.23,0.08,0.46,0.17,0.69,0.25c0.05,0.02,0.1,0.04,0.15,0.03c0.09-0.01,0.15-0.1,0.23-0.15c0.22-0.14,0.51,0.02,0.7,0.19
		c0.2,0.17,0.42,0.38,0.67,0.34c0,0,13.29,5.57,13.33,5.57c-0.92,3.7-1.3,7.52-1.15,11.33c0.01,0.31,0.01,0.67-0.24,0.86
		c-0.23,0.18-0.56,0.13-0.84,0.06c-1.21-0.3-2.41-0.68-3.64-0.88s-2.53-0.21-3.7,0.21c-0.26,0.09-0.54,0.24-0.64,0.5
		c-0.05,0.15-0.04,0.31-0.03,0.46c0.04,0.43,0.07,0.87,0.11,1.3l2.5,31.86c0,0,0.22,7.16-0.02,7.4c-5.41,1.26-10.88,2.52-16.43,2.58
		c-3.23,0.03-6.45-0.34-9.65-0.78c-2.42-0.33-4.83-0.69-7.23-1.14c-0.46-0.09-0.94-0.18-1.3-0.47c-0.71-0.55-0.78-1.57-0.88-2.46
		c-0.05-0.43-0.17-0.92-0.56-1.09c0,0-2.5-41.79-2.38-41.82c-0.69-1-1.84-1.67-3.05-1.8c0,0-11.43-5.03-11.35-5
		c-0.94-2.6-0.47-5.47,0.01-8.19c0.27-1.53,0.68-3.26,2.05-4c0,0,12.43,4.67,12.49,4.7c0.31-0.14,0.55-0.38,0.84-0.56
		c0.28-0.18,0.64-0.31,0.95-0.19c0.57,0.22,0.74,1.13,1.35,1.15c0.47,0.02,0.81-0.54,1.28-0.49c0,0,6.92-0.46,7.21-0.29
		c0.61-0.53,1.28-1,1.98-1.4c0.3-0.17,0.6-0.32,0.94-0.39C390.91,223.39,391.27,223.43,392.07,223.32z"></path><path class="st2" d="M383.6,208.43c-0.08,0.76-0.16,1.53-0.24,2.29c-0.03,0.24-0.05,0.51,0.09,0.71c0.15,0.22,0.44,0.3,0.64,0.47
		c0.46,0.39,0.37,1.09,0.41,1.69c0.09,1.45,1.23,2.76,2.65,3.05c1.09-0.96,1.82-2.29,2.25-3.68c0.43-1.39,0.58-2.85,0.67-4.3
		c0.08-1.31,0.09-2.66-0.35-3.9c-0.1-0.27-0.24-0.56-0.51-0.65c-0.3-0.1-0.62,0.08-0.89,0.26
		C386.68,205.51,385.13,206.79,383.6,208.43z"></path><path class="st1" d="M398,225.54c0.81,0.85,1.21,2,1.53,3.12c0.89,3.06,1.42,6.22,1.58,9.4c0.15,3.04-0.05,6.17-1.23,8.97
		c-0.48,1.15-1.14,2.31-1.04,3.55c0,0,4.8,27.81,4.79,27.88c1.11,0.63,2.42,0.86,3.7,0.84c1.28-0.02,2.54-0.27,3.79-0.56
		c0.86-0.2,1.72-0.42,2.54-0.74c0.39-0.15,0.78-0.32,1.06-0.63c0.28-0.31,0.42-0.78,0.24-1.15c0,0-0.13-28.31,0.04-28.4
		c-2.21-1.11-3.97-3.1-4.8-5.44l-2.66-9.54c0,0-0.99-6-1.03-5.96c0.18-0.6-0.24-1.25-0.8-1.54c-0.56-0.29-1.21-0.31-1.84-0.32
		c-0.85-0.02-1.69-0.04-2.54-0.05c-1.08-0.02-2.16-0.05-3.22,0.09C398.13,225.19,398.15,225.31,398,225.54z"></path><path class="st1" d="M385.45,225.17c0.28,0.89-0.15,1.83-0.46,2.71c-0.79,2.22-0.88,4.62-0.75,7.04c0.24,4.62,1.26,9.2,2.99,13.49
		c0.29,0.71,0.59,1.42,0.76,2.16c0,0-1.88,28.3-1.88,28.36c-0.42,0.87-0.99,1.71-1.83,2.17c-0.56,0.31-1.21,0.42-1.85,0.5
		c-2.92,0.37-5.91,0.11-8.72-0.77c-0.75-0.24-1.5-0.52-2.12-1s-1.12-1.16-1.22-1.94c0,0,1.86-33.56,1.98-33.71
		c2.36-1.85,4.05-4.46,5.13-7.25s1.56-5.79,1.77-8.78c0.04-0.63,0.08-1.27,0.22-1.89c0.09-0.39,0.24-0.8,0.58-1.02
		c0.26-0.17,0.59-0.2,0.91-0.22C382.39,224.92,383.84,224.98,385.45,225.17z"></path><path class="st1" d="M383.46,208.64c1.45-1.39,2.9-2.78,4.55-3.92c1.65-1.14,3.51-2.04,5.49-2.31c0.97-0.13,2-0.1,2.84,0.4
		c0.33,0.2,0.62,0.46,0.95,0.65c0.9,0.49,2.04,0.35,2.94-0.14c0.9-0.49,1.61-1.26,2.27-2.05c1-1.19,1.98-2.52,2.18-4.07
		c0.04-0.33,0.03-0.71-0.18-0.96c-0.29-0.33-0.8-0.33-1.23-0.27c-1.03,0.14-2.04,0.41-3.27,0.83c-0.7-1.56-1.85-2.9-3.24-3.89
		c-0.77-0.55-1.61-1-2.53-1.23c-0.79-0.2-1.61-0.23-2.42-0.16c-2.78,0.25-5.38,1.74-7.19,3.87c-1.81,2.13-2.85,4.84-3.18,7.61
		c-0.13,1.08-0.15,2.19,0.1,3.25C381.79,207.33,382.33,208.34,383.46,208.64z"></path><path class="st0" d="M398.55,197.79c0.7,3.59,1.41,7.17,2.11,10.76l1.94,1.02c0,0-1.82,0.96-1.76,1.08
		c-0.41,2.47,0.49,5.07-0.23,7.46c-0.12,0.4-0.3,0.81-0.61,1.09c-0.39,0.36-0.95,0.49-1.48,0.46s-1.04-0.2-1.73-0.24
		c-0.47,1.94-0.59,3.95-0.37,5.93c0.07,0.64,0.16,1.35-0.23,1.86c-0.24,0.32-0.63,0.49-1.01,0.62c-2.28,0.83-4.83,0.89-7.15,0.17
		c-0.28-0.09-0.57-0.2-0.74-0.43c-0.14-0.19-0.18-0.43-0.2-0.66c-0.08-0.67-0.11-1.35-0.14-2.03c-0.17-4.19-0.32-8.54,1.26-12.42
		c0.17-0.41,0.33-0.96,0-1.25c-0.13-0.12-0.32-0.17-0.44-0.3c-0.12-0.13-0.15-0.32-0.18-0.5c-0.12-0.99-0.13-2-0.02-3
		c0.03-0.32,0.11-0.68,0.38-0.85c0.45-0.28,0.99,0.17,1.33,0.58c-0.21-1.11-0.29-2.24-0.06-3.42
		C392.01,201.19,395.24,199.15,398.55,197.79z"></path><path class="st0" d="M363.3,221.26c-1.31,2.81-1.48,6-1.59,9.1c-0.02,0.62-0.04,1.25-0.27,1.82c-0.09,0.22-0.26,0.45-0.49,0.43
		c-0.1-0.01-0.19-0.07-0.28-0.13c-0.25-0.18-0.5-0.35-0.75-0.53l-30.67-14.74l-0.52,0.65c0,0-8.1-3.77-8.2-3.85
		c-1.28,0.2-2.62,0.02-3.81-0.5c-0.43-0.19-0.85-0.43-1.14-0.8c-0.27-0.35-0.4-0.79-0.48-1.23c-0.22-1.23-0.02-2.61,0.85-3.52
		c0,0-4.61-3.41-4.69-3.54c0.13-0.42,0.29-0.88,0.67-1.11c0.54-0.34,1.25-0.07,1.83,0.21c0,0,1.71,0.8,1.85,0.88
		c0.09-0.5,0.41-0.96,0.85-1.21s1-0.3,1.47-0.12c0.15-0.43,0.53-0.78,0.97-0.89s0.94,0.01,1.28,0.32c0.11,0.1,0.22,0.23,0.36,0.28
		c0.32,0.12,0.64-0.15,0.96-0.28c0.58-0.25,1.34,0.03,1.62,0.6l1.68,2.75l6.44,2.8l0.13,0.91l1.27,0.55L363.3,221.26z"></path><path class="st0" d="M421.32,232.26c-1.26,3.03-1.67,6.4-1.17,9.64c0.11,0.7,0.26,1.41,0.57,2.05c0,0,19.1,1.08,19.27,1.15
		c1.91,0.17,3.75-1.05,4.74-2.7c0.98-1.64,1.23-3.64,1.13-5.55c0,0-1.27-27.03-1.34-27.03c0.71-0.82,1.67-1.37,2.54-2.02
		s1.71-1.45,1.98-2.5c0.17-0.68,0.09-1.39,0-2.09c-0.09-0.71-0.18-1.41-0.27-2.11c-0.13-0.99-0.29-2-0.79-2.86
		c-0.56-0.97-1.55-1.68-2.64-1.88c-1.1-0.2-2.28,0.12-3.11,0.87c-0.06,0.05-0.12,0.12-0.13,0.2c0,0.07,0.03,0.13,0.07,0.19
		c0.79,1.24,1.38,2.64,1.43,4.11s-0.49,3-1.63,3.92c-0.42,0.34-1.04,0.58-1.46,0.24c-0.34-0.27-0.35-0.77-0.38-1.21
		s-0.15-0.95-0.56-1.09c-0.3-0.1-0.64,0.06-0.83,0.31c-0.2,0.25-0.29,0.56-0.38,0.86c-0.1,0.35-0.2,0.7-0.3,1.05
		c-0.19,0.66-0.37,1.32-0.42,2c-0.05,0.68,0.05,1.39,0.4,1.97c0.32,0.53,0.85,0.98,0.91,1.6l-1.09,25.48L421.32,232.26z"></path><path class="st3" d="M318.92,208.49c-0.09,0-0.18-0.02-0.26-0.07l-6.35-3.9c-0.24-0.14-0.31-0.45-0.16-0.69
		c0.14-0.24,0.45-0.31,0.69-0.16l6.35,3.9c0.24,0.14,0.31,0.45,0.16,0.69C319.25,208.41,319.09,208.49,318.92,208.49z"></path><path class="st3" d="M319.75,206.51c-0.09,0-0.19-0.03-0.27-0.08l-2.91-1.86c-0.23-0.15-0.3-0.46-0.15-0.69
		c0.15-0.23,0.46-0.3,0.69-0.15l2.91,1.86c0.23,0.15,0.3,0.46,0.15,0.69C320.08,206.43,319.92,206.51,319.75,206.51z"></path><path class="st3" d="M321.61,205.49c-0.1,0-0.2-0.03-0.28-0.09l-2.48-1.7c-0.23-0.16-0.29-0.47-0.13-0.7
		c0.16-0.23,0.47-0.28,0.7-0.13l2.48,1.7c0.23,0.16,0.29,0.47,0.13,0.7C321.93,205.41,321.77,205.49,321.61,205.49z"></path><path class="st3" d="M323.69,205.89c-0.14,0-0.29-0.06-0.39-0.18l-1.74-2.11c-0.18-0.21-0.15-0.53,0.07-0.7
		c0.21-0.18,0.53-0.15,0.7,0.07l1.74,2.11c0.18,0.21,0.15,0.53-0.07,0.7C323.91,205.85,323.8,205.89,323.69,205.89z"></path><path class="st3" d="M318.97,213.49c-0.44,0-0.88-0.03-1.32-0.1c-0.46-0.07-1.04-0.21-1.44-0.66c-0.38-0.42-0.52-1.03-0.44-1.84
		c0.1-0.92,0.38-1.67,0.84-2.22c0.18-0.21,0.49-0.24,0.7-0.06c0.21,0.18,0.24,0.49,0.07,0.7c-0.33,0.4-0.54,0.97-0.62,1.69
		c-0.06,0.52,0,0.86,0.18,1.06c0.19,0.21,0.56,0.29,0.85,0.34c0.81,0.13,1.63,0.12,2.44-0.02c0.27-0.05,0.53,0.14,0.58,0.41
		s-0.14,0.53-0.41,0.58C319.94,213.45,319.46,213.49,318.97,213.49z"></path><path class="st3" d="M328.62,217.35c-0.07,0-0.14-0.01-0.2-0.04l-6.72-2.98c-0.25-0.11-0.37-0.41-0.25-0.66
		c0.11-0.25,0.41-0.37,0.66-0.25l6.72,2.98c0.25,0.11,0.37,0.41,0.25,0.66C328.99,217.24,328.81,217.35,328.62,217.35z"></path><path class="st3" d="M330.72,209.89c-0.06,0-0.13-0.01-0.19-0.04l-6.23-2.6c-0.25-0.11-0.38-0.4-0.27-0.65
		c0.11-0.26,0.4-0.37,0.65-0.27l6.23,2.6c0.25,0.11,0.38,0.4,0.27,0.65C331.1,209.77,330.92,209.89,330.72,209.89z"></path><path class="st3" d="M362.82,221.7c-0.06,0-0.12-0.01-0.17-0.03l-30.27-11.13c-0.26-0.1-0.39-0.38-0.3-0.64
		c0.1-0.26,0.38-0.39,0.64-0.3l30.27,11.13c0.26,0.1,0.39,0.38,0.3,0.64C363.21,221.58,363.02,221.7,362.82,221.7z"></path><path class="st3" d="M360.25,232.53c-0.07,0-0.15-0.02-0.22-0.05l-29.78-14.25c-0.25-0.12-0.35-0.42-0.24-0.67
		c0.12-0.25,0.42-0.35,0.67-0.24l29.78,14.25c0.25,0.12,0.35,0.42,0.24,0.67C360.62,232.42,360.44,232.53,360.25,232.53z"></path><path class="st3" d="M400.61,208.6c-0.25,0-0.47-0.19-0.5-0.44c-0.37-3.23-1.03-6.44-1.95-9.56c-0.08-0.26,0.07-0.54,0.34-0.62
		c0.26-0.08,0.54,0.07,0.62,0.34c0.94,3.18,1.61,6.45,1.99,9.73c0.03,0.27-0.17,0.52-0.44,0.55
		C400.65,208.6,400.63,208.6,400.61,208.6z"></path><path class="st3" d="M397.05,211.33c-0.25,0-0.46-0.18-0.5-0.44c-0.03-0.27,0.16-0.52,0.43-0.56l5.04-0.64
		c-0.84-0.32-1.64-0.69-2.38-1.18c-1.58-1.03-2.65-2.44-3-3.96c-0.06-0.27,0.11-0.54,0.38-0.6c0.27-0.06,0.54,0.11,0.6,0.38
		c0.29,1.27,1.21,2.46,2.57,3.35c1.24,0.81,2.64,1.27,4.21,1.76c0.22,0.07,0.37,0.29,0.35,0.52s-0.2,0.42-0.44,0.45l-7.19,0.91
		C397.09,211.33,397.07,211.33,397.05,211.33z"></path><path class="st3" d="M398.5,219.99c-0.18,0-0.35-0.01-0.51-0.02c-2.03-0.18-3.98-0.88-5.66-2.02c-0.23-0.16-0.29-0.47-0.13-0.69
		c0.16-0.23,0.47-0.29,0.7-0.13c1.54,1.05,3.33,1.69,5.18,1.85c0.4,0.03,0.82,0.05,1.15-0.11c0.43-0.2,0.69-0.67,0.83-1.03
		c0.3-0.73,0.37-1.54,0.4-2.23c0.07-1.57-0.07-3.18-0.2-4.74l1-0.1l-0.5,0.04l0.5-0.03c0.14,1.59,0.28,3.23,0.2,4.87
		c-0.03,0.73-0.12,1.68-0.48,2.56c-0.3,0.75-0.77,1.29-1.34,1.56C399.28,219.94,398.88,219.99,398.5,219.99z"></path><path class="st3" d="M391.65,229.27c-1.58,0-3.2-0.44-4.71-1.29c-0.14-0.08-0.24-0.22-0.25-0.38l-0.2-1.88
		c0.17-6.91,0.27-8.71,0.36-9.26l-0.01,0c0.18-1.66,0.55-3.3,1.1-4.88c-0.47-0.29-0.82-0.86-0.97-1.63
		c-0.14-0.71-0.16-1.43-0.07-2.15c0.11-0.92,0.62-1.52,1.29-1.52c0.25-0.02,0.43,0.07,0.6,0.18c-0.09-0.79-0.1-1.59-0.03-2.39
		c0.02-0.28,0.27-0.48,0.54-0.46c0.27,0.02,0.48,0.26,0.46,0.54c-0.1,1.15-0.02,2.3,0.23,3.42c0.04,0.18-0.02,0.36-0.15,0.48
		c-0.13,0.12-0.32,0.16-0.49,0.1c-0.35-0.12-0.59-0.38-0.79-0.58c-0.13-0.14-0.28-0.3-0.37-0.3c0,0,0,0,0,0
		c-0.09,0-0.25,0.26-0.3,0.64c-0.07,0.61-0.05,1.23,0.06,1.83c0.09,0.49,0.34,0.99,0.67,1.03c0.15,0.02,0.29,0.1,0.37,0.23
		c0.08,0.13,0.1,0.29,0.04,0.44c-0.62,1.65-1.02,3.37-1.21,5.11c0,0.03-0.01,0.06-0.02,0.1c-0.08,0.57-0.24,5.8-0.33,9.01l0.17,1.55
		c1.34,0.7,2.73,1.06,4.14,1.04c1.57-0.03,3.03-0.56,4.13-1.5c0.04-0.04,0.18-0.15,0.2-0.22c0.01-0.05-0.01-0.17-0.03-0.27
		c-0.4-2.19-0.36-4.48,0.11-6.65c0.06-0.27,0.32-0.44,0.59-0.38c0.27,0.06,0.44,0.32,0.38,0.59c-0.44,2.04-0.47,4.2-0.1,6.25
		c0.04,0.21,0.08,0.46,0,0.73c-0.09,0.31-0.31,0.53-0.5,0.7c-1.27,1.09-2.97,1.71-4.76,1.74
		C391.76,229.27,391.71,229.27,391.65,229.27z"></path><path class="st3" d="M383.57,209.17c-0.13,0-0.26-0.05-0.35-0.15c-0.2-0.2-0.2-0.51,0-0.71c4.05-4.04,8.64-7.48,13.65-10.22
		c1.62-0.89,3.56-1.86,5.68-2.34c0.45-0.1,0.93-0.18,1.42-0.1c0.62,0.1,1.13,0.46,1.36,0.95c0.19,0.4,0.2,0.89,0.04,1.43
		c-0.22,0.75-0.69,1.39-1.15,1.98c-0.98,1.26-2.04,2.49-3.13,3.64c-0.19,0.2-0.51,0.21-0.71,0.02c-0.2-0.19-0.21-0.51-0.02-0.71
		c1.08-1.13,2.11-2.34,3.07-3.57c0.42-0.53,0.81-1.06,0.98-1.65c0.06-0.21,0.12-0.5,0.01-0.71c-0.09-0.19-0.33-0.34-0.62-0.39
		c-0.31-0.05-0.63,0-1.04,0.09c-1.99,0.45-3.86,1.39-5.42,2.24c-4.93,2.7-9.45,6.08-13.43,10.05
		C383.82,209.12,383.7,209.17,383.57,209.17z"></path><path class="st3" d="M397.55,203.35c-0.15,0-0.3-0.07-0.4-0.2c-0.16-0.22-0.12-0.54,0.11-0.7c0.62-0.46,1.35-0.73,2.11-0.79
		c0.27-0.02,0.52,0.18,0.54,0.46c0.02,0.28-0.18,0.52-0.46,0.54c-0.57,0.04-1.14,0.26-1.6,0.6
		C397.76,203.32,397.65,203.35,397.55,203.35z"></path><path class="st3" d="M391.7,204.71c-0.2,0-0.39-0.12-0.46-0.31c-0.1-0.26,0.02-0.55,0.28-0.65c0.86-0.34,1.76-0.53,2.68-0.55
		c0.32,0,0.51,0.21,0.51,0.49c0.01,0.28-0.21,0.51-0.49,0.51c-0.8,0.02-1.59,0.18-2.33,0.48
		C391.82,204.7,391.76,204.71,391.7,204.71z"></path><path class="st3" d="M396.36,215.85c-0.12,0-0.24-0.04-0.33-0.13c-0.67-0.59-1.58-1.41-1.8-2.54c-0.03-0.14,0.01-0.29,0.1-0.4
		c0.09-0.11,0.22-0.19,0.37-0.19c1.09-0.06,2.2-0.07,3.29-0.03c0.28,0.01,0.49,0.24,0.48,0.52c-0.01,0.28-0.24,0.52-0.52,0.48
		c-0.84-0.03-1.69-0.03-2.53,0c0.27,0.5,0.74,0.95,1.28,1.42c0.21,0.18,0.22,0.5,0.04,0.71
		C396.63,215.79,396.5,215.85,396.36,215.85z"></path><path class="st3" d="M395.15,207.64c-0.1,0-0.22-0.03-0.29-0.07c-0.31-0.17-0.5-0.67-0.61-1.05c-0.07-0.25-0.12-0.51-0.13-0.71
		c-0.03-0.57,0.26-0.73,0.43-0.78c0.44-0.13,0.8,0.24,1.04,1.11c0.25,0.86,0.14,1.36-0.3,1.49
		C395.24,207.63,395.2,207.64,395.15,207.64z M395.42,206.75L395.42,206.75L395.42,206.75z"></path><path class="st3" d="M399.15,206.26c-0.37,0-0.66-0.38-0.88-1.13l0,0c-0.07-0.25-0.12-0.51-0.13-0.71
		c-0.03-0.57,0.26-0.73,0.43-0.78c0.13-0.04,0.31-0.01,0.43,0.05c0.31,0.17,0.5,0.67,0.61,1.05c0.07,0.25,0.12,0.51,0.13,0.71
		c0.03,0.57-0.26,0.73-0.43,0.78C399.26,206.25,399.2,206.26,399.15,206.26z"></path><path class="st3" d="M411.09,244.96c-0.19,0-0.38-0.11-0.46-0.3c-2.44-5.56-3.99-11.44-4.62-17.48c-0.03-0.27,0.17-0.52,0.45-0.55
		c0.27-0.03,0.52,0.17,0.55,0.45c0.61,5.94,2.14,11.72,4.54,17.18c0.11,0.25,0,0.55-0.26,0.66
		C411.22,244.95,411.15,244.96,411.09,244.96z"></path><path class="st3" d="M407.63,279.7c-1.48,0-2.96-0.24-4.35-0.71c-0.22-0.08-0.36-0.3-0.33-0.53c-0.06-0.52-3.07-18.79-4.65-28.37
		c-0.02-0.09,0-0.19,0.03-0.28c3.01-7.11,3.02-15.28,0.05-22.41c-0.11-0.25,0.01-0.55,0.27-0.65c0.25-0.11,0.55,0.01,0.65,0.27
		c3.06,7.33,3.06,15.72,0.01,23.05c3.57,21.63,4.4,26.79,4.58,28.07c3.16,1,6.76,0.67,9.68-0.89c0.24-0.13,0.55-0.04,0.68,0.21
		c0.13,0.24,0.04,0.55-0.21,0.68C412.09,279.17,409.86,279.7,407.63,279.7z"></path><path class="st3" d="M380.25,282.05c-0.26,0-0.48-0.2-0.5-0.47c-0.02-0.28,0.19-0.51,0.46-0.53l2.35-0.16
		c0.59-0.04,1.21-0.08,1.72-0.31c0.9-0.39,1.49-1.46,1.35-2.44l0.07-0.01c-0.03-0.92,0.27-5.25,1.85-27.73
		c-3.9-9.12-4.82-17.12-2.72-23.79c0.08-0.26,0.37-0.41,0.63-0.33c0.26,0.08,0.41,0.36,0.33,0.63c-2.03,6.46-1.11,14.27,2.74,23.21
		c0.03,0.07,0.04,0.15,0.04,0.23c-0.65,9.26-1.87,26.73-1.92,27.7c0.18,1.4-0.65,2.88-1.95,3.45c-0.67,0.3-1.41,0.35-2.06,0.39
		l-2.35,0.16C380.27,282.05,380.26,282.05,380.25,282.05z"></path><path class="st3" d="M376.06,240.01c-0.09,0-0.18-0.02-0.26-0.08c-0.23-0.15-0.31-0.45-0.16-0.69c2.23-3.58,3.34-7.88,3.13-12.1
		c-0.01-0.28,0.2-0.51,0.47-0.52c0.3-0.02,0.51,0.2,0.52,0.47c0.23,4.42-0.94,8.92-3.28,12.68
		C376.39,239.93,376.22,240.01,376.06,240.01z"></path><path class="st3" d="M438.12,237.29c-0.04,0-0.08-0.01-0.13-0.02l-16.53-4.31c-0.27-0.07-0.43-0.34-0.36-0.61
		c0.07-0.27,0.34-0.43,0.61-0.36l16.53,4.31c0.27,0.07,0.43,0.34,0.36,0.61C438.54,237.14,438.34,237.29,438.12,237.29z"></path><path class="st3" d="M438.21,239.72c0,0-0.01,0-0.01,0c-0.28-0.01-0.49-0.24-0.49-0.51l0.75-28.75c0.01-0.28,0.22-0.48,0.51-0.49
		c0.28,0.01,0.49,0.24,0.49,0.51l-0.75,28.75C438.7,239.51,438.48,239.72,438.21,239.72z"></path><path class="st3" d="M437.61,210.82c-0.23,0-0.43-0.15-0.49-0.38c-0.55-2.3-0.09-4.84,1.21-6.81c0.15-0.23,0.47-0.29,0.69-0.14
		c0.23,0.15,0.29,0.46,0.14,0.69c-1.15,1.74-1.55,3.99-1.07,6.02c0.06,0.27-0.1,0.54-0.37,0.6
		C437.69,210.82,437.65,210.82,437.61,210.82z"></path><path class="st3" d="M439.9,206.83c-0.08,0-0.17,0-0.25-0.01c-0.27-0.03-0.48-0.27-0.45-0.55c0.03-0.27,0.28-0.47,0.55-0.45
		c0.92,0.08,1.78-0.68,2.19-1.15c0.79-0.89,1.28-1.9,1.41-2.91c0.15-1.1-0.16-2.2-0.82-2.95c-0.23-0.27-0.53-0.52-0.97-0.82
		c-0.23-0.16-0.29-0.47-0.13-0.7c0.16-0.23,0.47-0.29,0.7-0.13c0.34,0.23,0.78,0.56,1.15,0.98c0.84,0.96,1.24,2.36,1.06,3.74
		c-0.16,1.21-0.73,2.4-1.66,3.44C441.83,206.31,440.85,206.83,439.9,206.83z"></path><path class="st3" d="M445.6,204.97c-0.05,0-0.1-0.01-0.14-0.02c-0.26-0.08-0.42-0.36-0.33-0.62c0.72-2.42,0.53-5.13-0.54-7.42
		c-0.12-0.25-0.01-0.55,0.24-0.66c0.25-0.12,0.55-0.01,0.67,0.24c1.17,2.51,1.39,5.47,0.59,8.13
		C446.02,204.83,445.82,204.97,445.6,204.97z"></path><path class="st3" d="M446.99,206.59c-0.08,0-0.17-0.02-0.25-0.07c-0.24-0.14-0.32-0.44-0.19-0.68c1.29-2.27,1.67-5.02,1.03-7.55
		c-0.07-0.27,0.1-0.54,0.36-0.61c0.27-0.07,0.54,0.1,0.61,0.36c0.7,2.78,0.28,5.8-1.13,8.29
		C447.33,206.5,447.16,206.59,446.99,206.59z"></path><path class="st3" d="M445.28,209.18c-0.26,0-0.48-0.2-0.5-0.46c-0.02-0.28,0.18-0.52,0.46-0.54c0.66-0.05,1.35-0.45,1.9-1.1
		c0.53-0.63,0.9-1.41,1.26-2.17c0.12-0.25,0.42-0.36,0.67-0.24c0.25,0.12,0.36,0.42,0.24,0.67c-0.38,0.82-0.78,1.67-1.4,2.39
		c-0.73,0.86-1.65,1.38-2.59,1.45C445.3,209.18,445.29,209.18,445.28,209.18z"></path><path class="st3" d="M440.02,245.6c-0.05,0-0.1,0-0.15,0c-0.08,0-0.32-0.02-0.51-0.19l-18.55-1.1c-0.28-0.02-0.49-0.25-0.47-0.53
		c0.02-0.28,0.25-0.49,0.53-0.47l18.81,1.12c0.13,0.01,0.26,0.07,0.35,0.17c1.44-0.01,2.93-0.74,3.91-1.94
		c0.96-1.17,1.49-2.74,1.47-4.41c0-0.53-0.96-18.71-1.47-28.26c-0.01-0.28,0.2-0.51,0.47-0.53c0.28-0.01,0.51,0.2,0.53,0.47
		c1.5,28.19,1.48,28.32,1.47,28.39c0.03,1.82-0.57,3.62-1.69,4.97C443.52,244.74,441.77,245.6,440.02,245.6z"></path><path class="st4" d="M394.57,392.5h-7.04c-0.28,0-0.5-0.22-0.5-0.5s0.22-0.5,0.5-0.5h7.04c0.28,0,0.5,0.22,0.5,0.5
		S394.85,392.5,394.57,392.5z"></path><path class="st4" d="M423.63,391.3c-0.24,0-0.45-0.17-0.49-0.41c-0.05-0.27,0.13-0.53,0.41-0.58l7.29-1.28
		c0.27-0.05,0.53,0.13,0.58,0.41s-0.13,0.53-0.41,0.58l-7.29,1.28C423.69,391.3,423.66,391.3,423.63,391.3z"></path><path class="st4" d="M422.2,398.79c-0.24,0-0.45-0.17-0.49-0.42c-0.05-0.27,0.14-0.53,0.41-0.58c1.66-0.29,3.34-0.3,5.01-0.02
		c0.27,0.04,0.46,0.3,0.41,0.57c-0.04,0.27-0.3,0.46-0.57,0.41c-1.56-0.25-3.13-0.25-4.68,0.02
		C422.26,398.79,422.23,398.79,422.2,398.79z"></path></g></svg>